<?xml version="1.0" standalone="no"?>
<svg xmlns:xlink="http://www.w3.org/1999/xlink" id="wave" style="transform:rotate(0deg); transition: 0.3s" viewBox="0 0 1440 270" version="1.1" xmlns="http://www.w3.org/2000/svg"><defs><linearGradient id="sw-gradient-0" x1="0" x2="0" y1="1" y2="0"><stop stop-color="rgba(230.276, 207.199, 0, 1)" offset="0%"/><stop stop-color="rgba(248.49, 171.091, 0, 1)" offset="100%"/></linearGradient></defs><path style="transform:translate(0, 0px); opacity:1" fill="url(#sw-gradient-0)" d="M0,135L48,153C96,171,192,207,288,193.5C384,180,480,117,576,85.5C672,54,768,54,864,67.5C960,81,1056,108,1152,117C1248,126,1344,117,1440,135C1536,153,1632,198,1728,184.5C1824,171,1920,99,2016,90C2112,81,2208,135,2304,130.5C2400,126,2496,63,2592,58.5C2688,54,2784,108,2880,112.5C2976,117,3072,72,3168,72C3264,72,3360,117,3456,112.5C3552,108,3648,54,3744,67.5C3840,81,3936,162,4032,198C4128,234,4224,225,4320,189C4416,153,4512,90,4608,90C4704,90,4800,153,4896,171C4992,189,5088,162,5184,126C5280,90,5376,45,5472,49.5C5568,54,5664,108,5760,135C5856,162,5952,162,6048,153C6144,144,6240,126,6336,117C6432,108,6528,108,6624,94.5C6720,81,6816,54,6864,40.5L6912,27L6912,270L6864,270C6816,270,6720,270,6624,270C6528,270,6432,270,6336,270C6240,270,6144,270,6048,270C5952,270,5856,270,5760,270C5664,270,5568,270,5472,270C5376,270,5280,270,5184,270C5088,270,4992,270,4896,270C4800,270,4704,270,4608,270C4512,270,4416,270,4320,270C4224,270,4128,270,4032,270C3936,270,3840,270,3744,270C3648,270,3552,270,3456,270C3360,270,3264,270,3168,270C3072,270,2976,270,2880,270C2784,270,2688,270,2592,270C2496,270,2400,270,2304,270C2208,270,2112,270,2016,270C1920,270,1824,270,1728,270C1632,270,1536,270,1440,270C1344,270,1248,270,1152,270C1056,270,960,270,864,270C768,270,672,270,576,270C480,270,384,270,288,270C192,270,96,270,48,270L0,270Z"/></svg>