<?xml version="1.0" standalone="no"?>
<svg xmlns:xlink="http://www.w3.org/1999/xlink" id="wave" style="transform:rotate(0deg); transition: 0.3s" viewBox="0 0 1440 300" version="1.1" xmlns="http://www.w3.org/2000/svg"><defs><linearGradient id="sw-gradient-0" x1="0" x2="0" y1="1" y2="0"><stop stop-color="rgba(20.868, 0, 248.49, 1)" offset="0%"/><stop stop-color="rgba(11, 23.57, 255, 1)" offset="100%"/></linearGradient></defs><path style="transform:translate(0, 0px); opacity:1" fill="url(#sw-gradient-0)" d="M0,120L80,140C160,160,320,200,480,220C640,240,800,240,960,225C1120,210,1280,180,1440,170C1600,160,1760,170,1920,165C2080,160,2240,140,2400,145C2560,150,2720,180,2880,165C3040,150,3200,90,3360,70C3520,50,3680,70,3840,100C4000,130,4160,170,4320,175C4480,180,4640,150,4800,140C4960,130,5120,140,5280,150C5440,160,5600,170,5760,180C5920,190,6080,200,6240,180C6400,160,6560,110,6720,85C6880,60,7040,60,7200,85C7360,110,7520,160,7680,185C7840,210,8000,210,8160,175C8320,140,8480,70,8640,60C8800,50,8960,100,9120,145C9280,190,9440,230,9600,235C9760,240,9920,210,10080,185C10240,160,10400,140,10560,120C10720,100,10880,80,11040,100C11200,120,11360,180,11440,210L11520,240L11520,300L11440,300C11360,300,11200,300,11040,300C10880,300,10720,300,10560,300C10400,300,10240,300,10080,300C9920,300,9760,300,9600,300C9440,300,9280,300,9120,300C8960,300,8800,300,8640,300C8480,300,8320,300,8160,300C8000,300,7840,300,7680,300C7520,300,7360,300,7200,300C7040,300,6880,300,6720,300C6560,300,6400,300,6240,300C6080,300,5920,300,5760,300C5600,300,5440,300,5280,300C5120,300,4960,300,4800,300C4640,300,4480,300,4320,300C4160,300,4000,300,3840,300C3680,300,3520,300,3360,300C3200,300,3040,300,2880,300C2720,300,2560,300,2400,300C2240,300,2080,300,1920,300C1760,300,1600,300,1440,300C1280,300,1120,300,960,300C800,300,640,300,480,300C320,300,160,300,80,300L0,300Z"/></svg>